<svg width="16" height="17" viewBox="0 0 16 17" fill="none" xmlns="http://www.w3.org/2000/svg">
<path fill-rule="evenodd" clip-rule="evenodd" d="M7.99989 3.46615C6.93668 3.46615 5.91841 3.884 5.1688 4.62537C4.41943 5.3665 3.99984 6.36987 3.99984 7.41471C3.99984 8.83836 4.62491 10.18 5.44577 11.3213C6.26327 12.4579 7.23602 13.3412 7.83765 13.8338C7.88383 13.8716 7.91782 13.8994 7.94762 13.9229C7.97188 13.942 7.98833 13.9542 7.99991 13.9623C8.01139 13.9543 8.02778 13.9421 8.05203 13.9231C8.08179 13.8996 8.11584 13.8718 8.16212 13.8339C8.76376 13.3413 9.73646 12.458 10.5539 11.3215C11.3747 10.1803 11.9998 8.83866 11.9998 7.41501C11.9998 6.3701 11.5802 5.36638 10.8308 4.6253C10.0812 3.88393 9.06311 3.46615 7.99989 3.46615ZM4.23121 3.67737C5.23195 2.68763 6.58775 2.13281 7.99989 2.13281C9.41203 2.13281 10.7677 2.68755 11.7684 3.67729C12.7695 4.66731 13.3331 6.01176 13.3331 7.41501C13.3331 9.22591 12.5434 10.8389 11.6364 12.1C10.7259 13.3658 9.65766 14.3326 9.00682 14.8655C8.99593 14.8745 8.9848 14.8836 8.9734 14.8931C8.82583 15.0148 8.63376 15.1733 8.36118 15.25C8.13889 15.3126 7.86059 15.3126 7.63831 15.25C7.36611 15.1734 7.17319 15.0141 7.02683 14.8933C7.01525 14.8838 7.00396 14.8745 6.99295 14.8654C6.3421 14.3325 5.27378 13.3656 4.36334 12.0998C3.45626 10.8387 2.6665 9.22562 2.6665 7.41471C2.6665 6.0114 3.23024 4.66734 4.23121 3.67737ZM7.99984 6.13281C7.63165 6.13281 7.33317 6.43129 7.33317 6.79948C7.33317 7.16767 7.63165 7.46615 7.99984 7.46615C8.36803 7.46615 8.6665 7.16767 8.6665 6.79948C8.6665 6.43129 8.36803 6.13281 7.99984 6.13281ZM5.99984 6.79948C5.99984 5.69491 6.89527 4.79948 7.99984 4.79948C9.10441 4.79948 9.99984 5.69491 9.99984 6.79948C9.99984 7.90405 9.10441 8.79948 7.99984 8.79948C6.89527 8.79948 5.99984 7.90405 5.99984 6.79948Z" fill="#E535EF"/>
</svg>
