<svg width="47" height="46" viewBox="0 0 47 46" fill="none" xmlns="http://www.w3.org/2000/svg">
<path fill-rule="evenodd" clip-rule="evenodd" d="M11.5939 26.8711C11.6768 26.8966 11.7613 26.9164 11.8469 26.9305C12.3891 28.2083 12.9284 29.4873 13.4645 30.7677C14.4286 33.0715 15.4004 35.4443 15.6131 36.1267C15.8795 36.9662 16.1594 37.5373 16.466 37.9283C16.6251 38.1277 16.8072 38.304 17.0219 38.4382C17.1346 38.5065 17.254 38.563 17.3784 38.6068C17.9917 38.8368 18.5514 38.741 18.9021 38.6241C19.1081 38.5541 19.3039 38.4574 19.4848 38.3366L19.4944 38.3327L24.9109 34.9556L31.1688 39.7511C31.2608 39.8213 31.3604 39.8808 31.4678 39.9293C32.2191 40.2552 32.9474 40.3702 33.6336 40.2782C34.3159 40.1823 34.8584 39.8967 35.2628 39.5728C35.7267 39.1981 36.0969 38.7204 36.3438 38.1775L36.361 38.1353L36.3668 38.12L36.3706 38.1123V38.1085L36.3725 38.1066C36.404 38.0235 36.4296 37.9383 36.4492 37.8517L42.1609 9.05374C42.1766 8.96124 42.1856 8.86771 42.1877 8.7739C42.1877 7.93057 41.8695 7.12749 41.1239 6.64257C40.4838 6.22665 39.7727 6.20749 39.3223 6.24199C38.8393 6.28032 38.3908 6.39915 38.0899 6.49499C37.9217 6.54928 37.7555 6.60937 37.5915 6.67515L37.5704 6.68474L5.53528 19.2504L5.53145 19.2523C5.42281 19.2916 5.31601 19.3357 5.21136 19.3846C4.95724 19.4986 4.71354 19.6345 4.48303 19.7909C4.04795 20.088 3.04553 20.9045 3.21611 22.2538C3.35028 23.3272 4.08628 23.9884 4.5367 24.3066C4.78203 24.481 5.01586 24.6056 5.18836 24.688C5.26503 24.7263 5.42986 24.7915 5.50078 24.8222L5.51995 24.8279L11.5939 26.8711ZM38.6917 9.32974H38.6879L38.638 9.35082L6.56453 21.9337L6.5147 21.9529L6.49553 21.9587C6.43681 21.9814 6.37924 22.0069 6.32303 22.0353C6.37662 22.0654 6.43163 22.0929 6.48786 22.1177L12.51 24.1456C12.6164 24.185 12.719 24.2337 12.8167 24.2912L32.7059 12.6475L32.7251 12.6379C32.8028 12.5917 32.882 12.5482 32.9628 12.5076C33.1008 12.4367 33.3212 12.3332 33.5704 12.2565C33.7429 12.2028 34.2546 12.0514 34.8066 12.2297C35.0999 12.3211 35.3613 12.4937 35.5607 12.7273C35.7601 12.961 35.8894 13.2463 35.9336 13.5502C36.005 13.8162 36.007 14.096 35.9394 14.3629C35.8052 14.89 35.4372 15.3002 35.1018 15.6145C34.8143 15.8828 31.0844 19.4785 27.4064 23.0282L22.3981 27.8582L21.5069 28.7207L32.7615 37.3495C32.9135 37.413 33.0784 37.4392 33.2426 37.4262C33.3253 37.4148 33.4031 37.3803 33.4669 37.3265C33.5445 37.2608 33.6111 37.1831 33.6643 37.0965L33.6681 37.0946L39.2073 9.16299C39.0331 9.20589 38.862 9.26097 38.6955 9.32782L38.6917 9.32974ZM22.4748 33.0849L20.2284 31.3637L19.6841 34.8233L22.4748 33.0849ZM18.168 27.9482L20.4009 25.792L25.4092 20.9582L27.2741 19.1603L14.7774 26.4762L14.8445 26.6334C15.6327 28.4953 16.4121 30.3609 17.1829 32.2301L17.7253 28.7801C17.7748 28.4602 17.9308 28.1684 18.168 27.9482Z" fill="currentColor"/>
</svg>
